<svg width="20" height="21" viewBox="0 0 20 21" fill="none" xmlns="http://www.w3.org/2000/svg">
<path d="M7.50054 4.69193C7.04061 4.69193 6.66675 4.3144 6.66675 3.84719V3.00369C6.66675 1.60671 7.78803 0.470703 9.1669 0.470703H18.1262C18.5861 0.470703 18.96 0.848239 18.96 1.31544C18.96 1.78265 18.5861 2.15895 18.1262 2.15895H9.1669C8.70697 2.15895 8.33311 2.53772 8.33311 3.00369V3.84843C8.33433 4.3144 7.96047 4.69193 7.50054 4.69193Z" fill="#29AFBD"/>
<path d="M12.0841 18.2017H9.16764C7.78877 18.2017 6.66748 17.0657 6.66748 15.6687V13.9805C6.66626 13.5133 7.04013 13.1357 7.50006 13.1357C7.95999 13.1357 8.33385 13.5133 8.33385 13.9805V15.6687C8.33385 16.1347 8.70771 16.5135 9.16764 16.5135H12.0841C12.544 16.5135 12.9179 16.891 12.9179 17.3582C12.9167 17.8242 12.544 18.2017 12.0841 18.2017Z" fill="#29AFBD"/>
<path d="M5.58903 12.8886C5.35037 13.1307 4.99268 13.2027 4.68016 13.0722C4.36917 12.9418 4.16652 12.6341 4.16652 12.2921V9.75915H0.833792C0.372643 9.75791 0 9.38037 0 8.91441C0 8.44844 0.372643 8.06967 0.833792 8.06967H4.16774V5.53668C4.16774 5.1947 4.37039 4.88705 4.68169 4.75656C4.99268 4.62608 5.35159 4.69812 5.59025 4.94023L8.9242 8.31795C9.24923 8.64725 9.24923 9.18156 8.9242 9.51209L5.58903 12.8886Z" fill="#29AFBD"/>
<path d="M17.8038 0.552991L12.7962 2.24371C12.1211 2.4818 11.6672 3.12525 11.6672 3.84724V19.0452C11.6672 19.9759 12.4147 20.7334 13.3336 20.7334C13.5137 20.7334 13.6824 20.7081 13.8649 20.6512L18.8738 18.9589C19.5477 18.7221 20.0015 18.0777 20.0015 17.3569V2.15899C20.0015 1.0471 18.9226 0.206065 17.8038 0.552991Z" fill="#29AFBD"/>
</svg>
